<?xml version="1.0" encoding="UTF-8" standalone="no"?>
<!-- Created with Inkscape (http://www.inkscape.org/) -->

<svg
   xmlns:dc="http://purl.org/dc/elements/1.1/"
   xmlns:cc="http://creativecommons.org/ns#"
   xmlns:rdf="http://www.w3.org/1999/02/22-rdf-syntax-ns#"
   xmlns:svg="http://www.w3.org/2000/svg"
   xmlns="http://www.w3.org/2000/svg"
   xmlns:sodipodi="http://sodipodi.sourceforge.net/DTD/sodipodi-0.dtd"
   xmlns:inkscape="http://www.inkscape.org/namespaces/inkscape"
   width="141.73228"
   height="141.73228"
   id="svg2"
   version="1.1"
   inkscape:version="0.48.5 r10040"
   sodipodi:docname="cse.svg">
  <defs
     id="defs4" />
  <sodipodi:namedview
     id="base"
     pagecolor="#ffffff"
     bordercolor="#666666"
     borderopacity="1.0"
     inkscape:pageopacity="0.0"
     inkscape:pageshadow="2"
     inkscape:zoom="2.8"
     inkscape:cx="105.65997"
     inkscape:cy="148.95638"
     inkscape:document-units="px"
     inkscape:current-layer="layer1"
     showgrid="false"
     units="cm"
     inkscape:snap-global="false"
     inkscape:window-width="1920"
     inkscape:window-height="1017"
     inkscape:window-x="-8"
     inkscape:window-y="-8"
     inkscape:window-maximized="1" />
  <metadata
     id="metadata7">
    <rdf:RDF>
      <cc:Work
         rdf:about="">
        <dc:format>image/svg+xml</dc:format>
        <dc:type
           rdf:resource="http://purl.org/dc/dcmitype/StillImage" />
        <dc:title />
      </cc:Work>
    </rdf:RDF>
  </metadata>
  <g
     inkscape:label="Layer 1"
     inkscape:groupmode="layer"
     id="layer1"
     transform="translate(0,-910.62859)">
    <path
       style="fill:none;stroke:#000000;stroke-width:1.18782759px;stroke-linecap:butt;stroke-linejoin:miter;stroke-opacity:1"
       d="m 102.05829,854.45812 c -4.741092,7.55166 -10.859702,14.85878 -11.690291,25.45169 -0.749632,9.87078 1.843204,19.5782 4.977253,28.25836 5.924398,14.77 16.776428,23.4874 26.521008,32.7389 -10.30766,-5.9045 -21.79641,-9.1133 -30.431986,-19.5206 -4.306929,-5.16316 -7.78589,-11.7293 -10.004018,-18.98893 -2.158371,-10.83286 -1.224853,-23.09426 3.630528,-32.31172 3.210262,-7.36876 9.406234,-9.92475 14.61656,-13.61815 0.820216,-0.60617 1.622796,-1.26251 2.380946,-2.00955 z"
       id="path3090"
       inkscape:connector-curvature="0" />
    <path
       style="fill:none;stroke:#000000;stroke-width:1.14485693px;stroke-linecap:butt;stroke-linejoin:miter;stroke-opacity:1"
       d="m 96.807137,896.43254 c -4.753895,-21.38065 3.519173,-42.46332 18.723933,-47.00079 l -0.33436,16.00028 c -7.65199,5.21192 -14.28864,13.84022 -18.389573,31.00051 z"
       id="path3096"
       inkscape:connector-curvature="0"
       sodipodi:nodetypes="cccc" />
    <path
       style="fill:none;stroke:#000000;stroke-width:1.04555893px;stroke-linecap:butt;stroke-linejoin:miter;stroke-opacity:1"
       d="m 130.53648,870.26149 30.17324,-4.39017 -1.27046,17.1217"
       id="path3098"
       inkscape:connector-curvature="0" />
    <path
       style="fill:none;stroke:#000000;stroke-width:1.23466575px;stroke-linecap:butt;stroke-linejoin:miter;stroke-opacity:1"
       d="m 160.96831,882.5701 -30.68886,-0.5829 0.33357,23.89866 31.02245,-0.58288 -0.33358,11.07498 -31.02244,0 0,-12.24078"
       id="path3100"
       inkscape:connector-curvature="0" />
    <path
       style="fill:none;stroke:#000000;stroke-width:1.18065083px;stroke-linecap:butt;stroke-linejoin:miter;stroke-opacity:1"
       d="m 131.23116,869.95398 -6.99221,0.534 0.33297,45.38903 5.66035,0.53398"
       id="path3102"
       inkscape:connector-curvature="0" />
    <path
       style="fill:none;stroke:#000000;stroke-width:1.3295505px;stroke-linecap:butt;stroke-linejoin:miter;stroke-opacity:1"
       d="m 161.26232,912.04571 0,27.77456 -36.62813,-1.7358 5.06559,-9.8369 31.56254,-2.3145"
       id="path3104"
       inkscape:connector-curvature="0" />
    <path
       style="fill:none;stroke:#000000;stroke-width:1.14485693px;stroke-linecap:butt;stroke-linejoin:miter;stroke-opacity:1"
       d="m 153.982,917.9329 0,8.00017"
       id="path3108"
       inkscape:connector-curvature="0" />
    <path
       style="fill:none;stroke:#000000;stroke-width:1.14485693px;stroke-linecap:butt;stroke-linejoin:miter;stroke-opacity:1"
       d="m 115.86542,883.93234 c 3.2358,-5.61756 3.85799,-19.33868 16.7178,-22.5004 l 31.0951,-4.00005 3.34356,-12.50022 c -14.29102,0.89526 -26.47859,5.1525 -38.11658,10.00017 -11.60064,12.81757 -12.21807,21.40861 -13.03988,29.0005 z"
       id="path3110"
       inkscape:connector-curvature="0"
       sodipodi:nodetypes="cccccc" />
    <path
       style="fill:none;stroke:#000000;stroke-width:1.14485693px;stroke-linecap:butt;stroke-linejoin:miter;stroke-opacity:1"
       d="m 169.69672,865.93203 27.75154,-1.50002 -0.33436,15.50025 -21.73313,-0.50001 0.33435,12.50021 -7.02146,-6.5001 z"
       id="path3112"
       inkscape:connector-curvature="0" />
    <path
       style="fill:none;stroke:#000000;stroke-width:1.14485693px;stroke-linecap:butt;stroke-linejoin:miter;stroke-opacity:1"
       d="m 168.3593,900.93261 0.33436,36.50066 26.74848,-0.5"
       id="path3116"
       inkscape:connector-curvature="0" />
    <path
       style="fill:none;stroke:#000000;stroke-width:1.17658699px;stroke-linecap:butt;stroke-linejoin:miter;stroke-opacity:1"
       d="m 168.19819,900.16384 -7.1041,-7.39874 1.60177,-5.81332 23.39211,28.53804 -12.69654,0 0.12514,10.56965 16.67468,-2.6425 7.56963,18.497"
       id="path3122"
       inkscape:connector-curvature="0" />
    <path
       style="fill:none;stroke:#000000;stroke-width:1.05586362px;stroke-linecap:butt;stroke-linejoin:miter;stroke-opacity:1"
       d="m 179.69102,896.37813 12.44394,0 -0.28282,19.60916 z"
       id="path3124"
       inkscape:connector-curvature="0" />
  </g>
</svg>
